<?xml version="1.0" encoding="UTF-8" standalone="no"?>
<svg width="592px" height="284px" viewBox="0 0 592 284" version="1.1" xmlns="http://www.w3.org/2000/svg" xmlns:xlink="http://www.w3.org/1999/xlink" xmlns:sketch="http://www.bohemiancoding.com/sketch/ns">
    <title>Untitled 7</title>
    <description>Created with Sketch (http://www.bohemiancoding.com/sketch)</description>
    <defs></defs>
    <g id="Page-1" stroke="none" stroke-width="1" fill="none" fill-rule="evenodd" sketch:type="MSPage">
        <g id="tp-3" sketch:type="MSLayerGroup" transform="translate(7.000000, 6.000000)">
            <path d="M51,174 L99,174" id="Rectangle-1" stroke="#9E6C18" stroke-width="14" sketch:type="MSShapeGroup"></path>
            <path d="M209.740741,6.05775522 L209.740741,6 L214,6 L53,6 M99,91 L99,227 M261,227 L261,94.2157753 L261,94.2157753 L260.938215,94.2157753 C260.979242,92.8108732 261,91.3968818 261,89.9746323 C261,43.5967212 238.927644,6 211.700009,6 C211.131037,6 210.564316,6.01641771 210,6.04899018" id="Oval-2" stroke="#9E6C18" stroke-width="14" sketch:type="MSShapeGroup"></path>
            <path d="M49.5,174 C76.8380965,174 99,136.391921 99,90 C99,43.6080787 76.8380965,6 49.5,6 C22.1619035,6 0,43.6080787 0,90 C0,136.391921 22.1619035,174 49.5,174 Z" id="Oval-1" stroke="#9E6C18" stroke-width="14" sketch:type="MSShapeGroup"></path>
            <ellipse id="Oval-3" stroke="#9E6C18" stroke-width="14" sketch:type="MSShapeGroup" cx="45.5" cy="91" rx="13.5" ry="27"></ellipse>
            <path d="M285,260 L132.771359,260 L132.771359,259.810796 L132.771359,259.810796 C118.939059,259.360228 105.957719,250.141376 100.971764,235.826124 C99.8363915,232.566339 99.1922955,229.26246 99,226 M137,193 L137,193 M261,226 L261,226 C261.602195,237.583437 268.322776,247.552478 278,252.753558 L278,260" id="Oval-8" stroke="#9E6C18" stroke-width="14" sketch:type="MSShapeGroup"></path>
            <g id="Group" transform="translate(117.000000, 95.000000)" fill="#9E6C18" sketch:type="MSShapeGroup">
                <rect id="Rectangle-12" x="0" y="0" width="24" height="14"></rect>
                <rect id="Rectangle-12" x="32" y="0" width="24" height="14"></rect>
                <rect id="Rectangle-12" x="65" y="0" width="24" height="14"></rect>
                <rect id="Rectangle-12" x="100" y="0" width="24" height="14"></rect>
            </g>
            <path d="M303.500856,104.440783 C305.628922,102.645991 307.429594,100.688037 311.030938,100.688037 C315.450768,100.688037 318.233624,114.230556 321.343876,110.640972 C324.126732,103.624969 321.834968,94.9773359 320.689086,86.9823547 C319.543204,79.1505365 311.194635,32.9754412 308.411779,24.6541343 C304.810435,13.7222213 308.739174,1.81133103 319.215809,0.179702222 C328.05547,-0.962437942 333.457485,3.44295984 335.912947,10.4589637 C336.731434,12.743244 337.713618,15.0275244 336.240342,16.822316 C334.112275,17.9644562 332.966393,19.1065964 331.493116,18.6171077 C323.799337,16.1696645 327.073286,8.8273349 321.998665,13.0695698 C319.052112,15.517013 321.998665,29.5490207 322.817152,32.8122784 C324.945219,42.6020512 328.546562,54.0234528 330.183537,66.9133204 C331.820511,79.1505365 333.948578,92.3667298 334.767065,103.298643 C335.258157,108.193529 334.603367,112.925253 333.293788,115.535859 C330.347234,121.899211 321.507573,125.162469 313.813794,121.409723 C311.358332,120.267582 305.13783,114.720044 303.828251,110.967298 C303.173461,109.009344 302.518671,106.725063 303.500856,104.440783 Z M370.309532,2 C372.267718,2 374.225903,2 374.225903,3.6279852 C375.694543,38.7924655 376.836818,79.0037 377,115.958964 C377,118.726539 375.694543,121.168517 373.899539,122.145308 C371.614989,122.796502 370.635896,123.122099 368.188164,121.331315 C366.39316,117.749748 366.719525,114.005382 366.719525,109.935419 C366.882707,93.1671712 366.229978,75.7477296 365.414067,63.8634376 C364.598157,62.3982509 355.296774,63.5378406 352.359496,64.1890346 C350.890856,64.1890346 351.054038,91.864783 351.706767,104.074672 C352.033131,109.447023 352.849042,117.586949 350.564492,121.656912 C349.422217,123.773293 346.811302,122.796502 344.526752,122.633703 C339.304924,122.796502 341.426292,102.609485 341.426292,89.7484023 C341.426292,67.6078036 341.589474,46.9323915 341.589474,25.1173898 C341.589474,19.7450387 341.099927,12.7447023 341.752656,8.83753784 C342.242202,6.069963 344.526752,2.32559704 349.095853,4.11638076 C353.338588,6.069963 349.911763,49.6999664 352.033131,51.8163471 C352.033131,53.1187353 365.250885,51.6535486 365.414067,51.4907501 C367.372253,49.0487723 363.619064,12.5819038 366.066796,6.23276152 C367.045889,3.95358224 367.209071,2 370.309532,2 Z M395.483679,118.35774 C395.483679,122.458691 393.80839,122.130615 393.473332,122.294653 C390.457811,123.770995 388.112406,122.622729 387.274761,121.6385 C383.589125,118.029664 383.924183,111.304105 384.091712,105.07066 C384.42677,80.7930315 385.599472,46.3450456 385.599472,23.2156836 C385.767001,14.5216681 383.756654,6.81188082 390.122753,4.3513104 C393.640861,2.71093012 395.31615,7.13995688 395.818737,10.9128315 C397.661555,21.2472273 396.488853,33.3860414 396.823911,42.900247 C397.829084,66.8497991 394.143448,94.2441498 395.483679,118.35774 Z M443.33719,14.535391 C439.592451,16.334884 430.31201,12.5723077 430.31201,15.1897521 C426.730086,39.7282928 429.823566,73.7550692 428.032604,103.364908 C427.706975,111.053651 430.474825,126.758317 420.543126,122.177789 C414.681795,119.560345 415.821498,107.781846 416.147128,98.9479709 C416.472757,93.7130823 415.821498,88.8053741 415.821498,84.3884368 C415.821498,60.8314377 416.635572,36.6200776 417.93809,16.1712937 C417.93809,13.2266688 410.448612,16.334884 407.192317,15.5169326 C404.424467,14.6989813 400.842542,11.7543564 401.005357,8.64614123 C401.656616,-0.678504233 431.614528,2.42971092 438.778377,2.75689146 C445.942226,3.90202336 446.10504,14.535391 443.33719,14.535391 Z M487.33719,14.535391 C483.592451,16.334884 474.31201,12.5723077 474.31201,15.1897521 C470.730086,39.7282928 473.823566,73.7550692 472.032604,103.364908 C471.706975,111.053651 474.474825,126.758317 464.543126,122.177789 C458.681795,119.560345 459.821498,107.781846 460.147128,98.9479709 C460.472757,93.7130823 459.821498,88.8053741 459.821498,84.3884368 C459.821498,60.8314377 460.635572,36.6200776 461.93809,16.1712937 C461.93809,13.2266688 454.448612,16.334884 451.192317,15.5169326 C448.424467,14.6989813 444.842542,11.7543564 445.005357,8.64614123 C445.656616,-0.678504233 475.614528,2.42971092 482.778377,2.75689146 C489.942226,3.90202336 490.10504,14.535391 487.33719,14.535391 Z M529.590257,4.53725257 C532.369566,6.17394672 520.271396,48.0733168 515.530221,68.8593325 C512.423934,82.9349021 508.173225,96.0284553 504.903449,110.104025 C503.759028,114.35943 503.595539,121.397215 500.489252,122.70657 C496.565521,123.033909 494.930633,123.524917 492.478301,121.397215 C489.862481,120.251529 493.9497,106.994306 495.584588,100.28386 C500.325763,80.4798609 506.374848,60.1848535 511.279512,40.2171849 C506.21136,33.0157307 500.81623,26.4689541 495.257611,18.7764916 C493.622723,16.3214504 490.843413,12.7207233 491.006902,10.7566903 C491.33388,6.82862437 496.238544,4.70092198 499.835297,6.99229379 C504.903449,10.1020127 510.135091,21.5588717 514.876265,25.1595988 C516.838131,20.904194 516.838131,12.2297151 519.61744,7.31963262 C521.579306,4.04624433 525.830014,1.10019486 529.590257,4.53725257 Z M345.33719,159.535391 C341.592451,161.334884 332.31201,157.572308 332.31201,160.189752 C328.730086,184.728293 331.823566,218.755069 330.032604,248.364908 C329.706975,256.053651 332.474825,271.758317 322.543126,267.177789 C316.681795,264.560345 317.821498,252.781846 318.147128,243.947971 C318.472757,238.713082 317.821498,233.805374 317.821498,229.388437 C317.821498,205.831438 318.635572,181.620078 319.93809,161.171294 C319.93809,158.226669 312.448612,161.334884 309.192317,160.516933 C306.424467,159.698981 302.842542,156.754356 303.005357,153.646141 C303.656616,144.321496 333.614528,147.429711 340.778377,147.756891 C347.942226,148.902023 348.10504,159.535391 345.33719,159.535391 Z M406.801443,143.972774 C409.406815,144.461246 411.686516,145.112541 413.47771,146.415133 C414.780396,155.533272 413.314874,165.302708 412.663531,175.397791 C410.220994,204.380449 411.198009,238.247826 406.1501,265.276597 C405.010249,266.742012 403.707563,266.579188 402.730548,266.742012 C401.427862,266.904836 400.125175,267.230484 398.659653,266.742012 C395.240102,265.927893 394.100251,255.344338 393.286072,250.622444 C389.378014,232.548988 386.609805,209.265167 383.353089,193.145599 C380.747717,207.474104 380.422045,225.059088 378.630852,241.015832 C377.816673,247.854437 377.979508,253.716098 375.699807,261.694471 C373.094435,263.159886 368.697869,267.06766 365.92966,263.32271 C363.324288,248.831381 347.854888,163.837292 347.692052,162.697525 C347.203545,157.487159 345.900858,147.066428 348.994738,144.298422 C350.623096,141.693239 353.391305,143.321478 354.856827,146.415133 C361.044587,167.093771 364.301302,192.005831 369.02354,221.639785 C370.326226,205.683041 371.303241,200.147027 372.280256,189.075001 C373.420106,175.234967 377.002494,152.276794 379.933538,149.183139 C381.561896,147.392076 382.213239,146.089485 384.330104,147.229252 C387.423984,148.857491 388.238163,158.138455 389.378014,163.023173 C393.286072,180.770981 395.728609,196.239253 398.822489,218.057659 C400.613683,198.19314 402.567712,168.233538 404.033234,149.183139 C404.033234,147.880548 405.661592,144.949717 406.801443,143.972774 Z M428.355409,161.11949 C428.193934,174.233663 430.939021,188.003545 430.777545,201.445572 C435.137389,202.265208 439.174281,203.084844 438.366902,207.510877 C437.882475,210.78942 435.137389,211.445129 431.907875,212.592619 C433.522632,227.673918 433.361156,243.246998 435.46034,257.836516 C440.789038,256.361171 447.893968,256.197244 452.092337,258.328297 C454.352996,259.639715 451.930861,266.032874 449.831677,266.032874 C442.565271,266.85251 435.298864,267.508219 428.355409,268 C423.511139,268 423.349663,260.951132 423.349663,259.639715 C422.865236,253.902264 419.635722,204.068407 418.989819,187.839618 C418.666868,180.298968 417.859489,172.922246 417.213587,166.365159 C416.567684,158.82451 417.213587,154.070622 421.57343,151.775642 C425.287371,149.808516 435.944767,148.98888 440.789038,148.169244 C446.602163,147.185681 450.154628,150.628152 447.732493,154.890258 C443.857076,161.447344 434.814437,156.693457 428.355409,161.11949 Z M469.355409,161.11949 C469.193934,174.233663 471.939021,188.003545 471.777545,201.445572 C476.137389,202.265208 480.174281,203.084844 479.366902,207.510877 C478.882475,210.78942 476.137389,211.445129 472.907875,212.592619 C474.522632,227.673918 474.361156,243.246998 476.46034,257.836516 C481.789038,256.361171 488.893968,256.197244 493.092337,258.328297 C495.352996,259.639715 492.930861,266.032874 490.831677,266.032874 C483.565271,266.85251 476.298864,267.508219 469.355409,268 C464.511139,268 464.349663,260.951132 464.349663,259.639715 C463.865236,253.902264 460.635722,204.068407 459.989819,187.839618 C459.666868,180.298968 458.859489,172.922246 458.213587,166.365159 C457.567684,158.82451 458.213587,154.070622 462.57343,151.775642 C466.287371,149.808516 476.944767,148.98888 481.789038,148.169244 C487.602163,147.185681 491.154628,150.628152 488.732493,154.890258 C484.857076,161.447344 475.814437,156.693457 469.355409,161.11949 Z M540.33719,159.535391 C536.592451,161.334884 527.31201,157.572308 527.31201,160.189752 C523.730086,184.728293 526.823566,218.755069 525.032604,248.364908 C524.706975,256.053651 527.474825,271.758317 517.543126,267.177789 C511.681795,264.560345 512.821498,252.781846 513.147128,243.947971 C513.472757,238.713082 512.821498,233.805374 512.821498,229.388437 C512.821498,205.831438 513.635572,181.620078 514.93809,161.171294 C514.93809,158.226669 507.448612,161.334884 504.192317,160.516933 C501.424467,159.698981 497.842542,156.754356 498.005357,153.646141 C498.656616,144.321496 528.614528,147.429711 535.778377,147.756891 C542.942226,148.902023 543.10504,159.535391 540.33719,159.535391 Z M542.500856,249.440783 C544.628922,247.645991 546.429594,245.688037 550.030938,245.688037 C554.450768,245.688037 557.233624,259.230556 560.343876,255.640972 C563.126732,248.624969 560.834968,239.977336 559.689086,231.982355 C558.543204,224.150536 550.194635,177.975441 547.411779,169.654134 C543.810435,158.722221 547.739174,146.811331 558.215809,145.179702 C567.05547,144.037562 572.457485,148.44296 574.912947,155.458964 C575.731434,157.743244 576.713618,160.027524 575.240342,161.822316 C573.112275,162.964456 571.966393,164.106596 570.493116,163.617108 C562.799337,161.169665 566.073286,153.827335 560.998665,158.06957 C558.052112,160.517013 560.998665,174.549021 561.817152,177.812278 C563.945219,187.602051 567.546562,199.023453 569.183537,211.91332 C570.820511,224.150536 572.948578,237.36673 573.767065,248.298643 C574.258157,253.193529 573.603367,257.925253 572.293788,260.535859 C569.347234,266.899211 560.507573,270.162469 552.813794,266.409723 C550.358332,265.267582 544.13783,259.720044 542.828251,255.967298 C542.173461,254.009344 541.518671,251.725063 542.500856,249.440783 Z" id="shitty" fill="#9E6C18" sketch:type="MSShapeGroup"></path>
        </g>
    </g>
</svg>